<svg width="40" height="40" viewBox="0 0 40 40" fill="none" xmlns="http://www.w3.org/2000/svg">
<path d="M25.4794 13.6058C25.4794 16.6327 23.0256 19.0865 19.9986 19.0865C16.9717 19.0865 14.5179 16.6327 14.5179 13.6058C14.5179 10.5788 16.9717 8.125 19.9986 8.125C23.0256 8.125 25.4794 10.5788 25.4794 13.6058Z" stroke="#999CA0"/>
<path d="M19.9986 31.875C25.4278 31.875 28.5557 30.4746 30.0067 29.5732C30.6857 29.1514 31.0203 28.3749 30.9513 27.5703C30.857 26.4716 30.4731 25.3743 30.0822 24.5038C29.569 23.361 28.381 22.7404 27.1282 22.7404H12.8691C11.6163 22.7404 10.4283 23.361 9.91509 24.5038C9.52421 25.3742 9.14031 26.4716 9.046 27.5703C8.97695 28.3749 9.3116 29.1514 9.99057 29.5732C11.4416 30.4746 14.5695 31.875 19.9986 31.875Z" stroke="#999CA0"/>
</svg>
