<svg width="99" height="57" viewBox="0 0 99 57" fill="none" xmlns="http://www.w3.org/2000/svg">
<path d="M62.3242 28.0215C62.3242 28.4442 62.1563 28.8495 61.8574 29.1484C61.5585 29.4473 61.1532 29.6152 60.7305 29.6152H50.6367V39.709C50.6367 40.1317 50.4688 40.537 50.1699 40.8359C49.871 41.1348 49.4657 41.3027 49.043 41.3027C48.6203 41.3027 48.2149 41.1348 47.916 40.8359C47.6171 40.537 47.4492 40.1317 47.4492 39.709V29.6152H37.3555C36.9328 29.6152 36.5274 29.4473 36.2285 29.1484C35.9296 28.8495 35.7617 28.4442 35.7617 28.0215C35.7617 27.5988 35.9296 27.1934 36.2285 26.8945C36.5274 26.5956 36.9328 26.4277 37.3555 26.4277H47.4492V16.334C47.4492 15.9113 47.6171 15.5059 47.916 15.207C48.2149 14.9081 48.6203 14.7402 49.043 14.7402C49.4657 14.7402 49.871 14.9081 50.1699 15.207C50.4688 15.5059 50.6367 15.9113 50.6367 16.334V26.4277H60.7305C61.1532 26.4277 61.5585 26.5956 61.8574 26.8945C62.1563 27.1934 62.3242 27.5988 62.3242 28.0215Z" fill="#4F4F4F"/>
</svg>
